<?xml version="1.0" encoding="UTF-8"?>
<svg width="117px" height="90px" viewBox="0 0 117 90" version="1.1" xmlns="http://www.w3.org/2000/svg" xmlns:xlink="http://www.w3.org/1999/xlink">
    <!-- Generator: Sketch 52.6 (67491) - http://www.bohemiancoding.com/sketch -->
    <title>logo</title>
    <desc>Created with Sketch.</desc>
    <defs>
        <polygon id="path-1" points="0.19233 0.210378738 9.95643 0.210378738 9.95643 22.1262458 0.19233 22.1262458"></polygon>
        <polygon id="path-3" points="0 89.7383721 117 89.7383721 117 0 0 0"></polygon>
    </defs>
    <g id="Page-1" stroke="none" stroke-width="1" fill="none" fill-rule="evenodd">
        <g id="logo">
            <path d="M39.64914,39.0245083 C39.64914,46.2559037 33.76734,52.1187608 26.50764,52.1187608 C19.25214,52.1187608 13.36944,46.2559037 13.36944,39.0245083 C13.36944,31.7892259 19.25214,25.9266678 26.50764,25.9266678 C33.76734,25.9266678 39.64914,31.7892259 39.64914,39.0245083" id="Fill-1" fill="#2E2868"></path>
            <path d="M39.64914,39.0245083 C39.64914,46.2559037 33.76734,52.1187608 26.50764,52.1187608 C19.25214,52.1187608 13.36944,46.2559037 13.36944,39.0245083 C13.36944,31.7889269 19.25214,25.9266678 26.50764,25.9266678 C33.76734,25.9266678 39.64914,31.7889269 39.64914,39.0245083 Z" id="Stroke-3" stroke="#2E2868" stroke-width="0.5"></path>
            <path d="M58.5021,25.9267575 C51.2424,25.9267575 45.3606,31.7890166 45.3606,39.024598 C45.3606,46.2556944 51.2424,52.1188505 58.5021,52.1188505 C65.7576,52.1188505 71.6403,46.2556944 71.6403,39.024598 C71.6403,31.7890166 65.7576,25.9267575 58.5021,25.9267575 M58.5021,28.8611761 C64.1208,28.8611761 68.6958,33.4209767 68.6958,39.024598 C68.6958,44.6279203 64.1208,49.1835349 58.5021,49.1835349 C52.8798,49.1835349 48.3048,44.6279203 48.3048,39.024598 C48.3048,33.4209767 52.8798,28.8611761 58.5021,28.8611761" id="Fill-5" fill="#2E2868" fill-rule="nonzero"></path>
            <path d="M103.63044,39.0245083 C103.63044,46.2559037 97.74864,52.1187608 90.49254,52.1187608 C83.23374,52.1187608 77.35074,46.2559037 77.35074,39.0245083 C77.35074,31.7892259 83.23374,25.9266678 90.49254,25.9266678 C97.74864,25.9266678 103.63044,31.7892259 103.63044,39.0245083" id="Fill-7" fill="#2E2868"></path>
            <path d="M103.63044,39.0245083 C103.63044,46.2559037 97.74864,52.1187608 90.49254,52.1187608 C83.23374,52.1187608 77.35074,46.2559037 77.35074,39.0245083 C77.35074,31.7889269 83.23374,25.9266678 90.49254,25.9266678 C97.74864,25.9266678 103.63044,31.7889269 103.63044,39.0245083 Z" id="Stroke-9" stroke="#2E2868" stroke-width="0.5"></path>
            <path d="M26.42922,21.6030498 C26.42922,21.6030498 26.54052,21.3106246 26.75472,20.7661395 C26.85672,20.4904585 27.00492,20.1618538 27.17622,19.7710565 C27.34152,19.3745781 27.56142,18.9374352 27.80532,18.4416877 C28.30602,17.4633488 28.96212,16.2888638 29.82462,15.0079336 C30.69042,13.7281993 31.76142,12.3363389 33.07242,10.9381993 C34.38282,9.5397608 35.92752,8.12816611 37.70652,6.80866445 C39.48792,5.50530897 41.49402,4.26743522 43.70382,3.25650498 C44.25012,2.99069103 44.81682,2.75716944 45.38682,2.52125581 C45.67332,2.40584053 45.96672,2.30089037 46.25592,2.19265116 L46.69452,2.02879734 L47.13882,1.87750166 C48.32172,1.46398007 49.55022,1.13298339 50.79822,0.853714286 C51.11082,0.784943522 51.42372,0.719461794 51.73992,0.653083056 C52.05612,0.597468439 52.37232,0.542152824 52.68852,0.485940199 C53.00802,0.427036545 53.32782,0.38069103 53.64732,0.337933555 C53.97012,0.299362126 54.28962,0.249428571 54.61182,0.220126246 L55.58052,0.127734219 C55.90362,0.0948438538 56.22912,0.0858737542 56.55192,0.0655415282 C56.87832,0.0461063123 57.20112,0.0260730897 57.52662,0.0227840532 L58.53162,5.98006644e-05 L59.46672,0.0227840532 C59.62512,0.0260730897 59.77002,0.0260730897 59.93802,0.0362392027 L60.43542,0.0622524917 C60.76452,0.0858737542 61.10412,0.0948438538 61.42362,0.127734219 L62.39172,0.216837209 C62.71782,0.246139535 63.03762,0.299362126 63.35682,0.337933555 C63.67572,0.377401993 63.99522,0.423747508 64.31142,0.482352159 C64.63092,0.538564784 64.95072,0.594179402 65.26332,0.649495017 C65.57952,0.716172757 65.89212,0.784943522 66.20502,0.850425249 C66.51882,0.91261794 66.82842,0.995142857 67.13772,1.06989369 C67.44732,1.1521196 67.75662,1.21760133 68.06352,1.30999336 C68.36292,1.40178738 68.66892,1.48999336 68.96892,1.57909635 C69.27162,1.6741794 69.56862,1.77912957 69.86472,1.87481063 L70.30962,2.0252093 L70.74732,2.18996013 C71.04072,2.29760133 71.33052,2.4025515 71.61672,2.51766777 C72.19002,2.7538804 72.75642,2.98740199 73.30302,3.25291694 C75.51372,4.26414618 77.51532,5.49843189 79.30122,6.80537542 C81.07932,8.12457807 82.62072,9.53647176 83.93502,10.9346113 C85.24542,12.3363389 86.31642,13.7281993 87.18222,15.0055415 C88.04562,16.2888638 88.69722,17.4633488 89.19822,18.4416877 C89.44182,18.9374352 89.66262,19.3745781 89.82732,19.7710565 C89.99832,20.1618538 90.14652,20.4904585 90.24882,20.7661395 C90.46302,21.3139136 90.57522,21.6030498 90.57522,21.6030498 C90.57522,21.6030498 90.40722,21.3411229 90.09132,20.8486645 C89.93922,20.5989967 89.73162,20.3029834 89.49492,19.9552425 C89.26062,19.6039136 88.97382,19.2098272 88.66092,18.7702924 C88.01622,17.9004917 87.21822,16.8626512 86.22432,15.7467708 C85.22622,14.6305914 84.04722,13.429794 82.66692,12.2382658 C81.29022,11.0464385 79.71612,9.85162126 77.96382,8.748 C76.20492,7.65484385 74.27502,6.63135548 72.19002,5.79773422 C70.11162,4.94378073 67.88202,4.2841794 65.57952,3.82102326 C64.43022,3.5818206 63.25182,3.43710299 62.07192,3.30613953 L61.18242,3.22690365 C60.88662,3.20089037 60.59982,3.19431229 60.30972,3.1772691 L59.87562,3.15484385 C59.72742,3.14796678 59.56542,3.14796678 59.41092,3.14467774 L58.47522,3.1321196 L57.60912,3.14467774 C57.31332,3.14467774 57.01302,3.15813289 56.71692,3.17398007 C56.42052,3.19431229 56.12112,3.19760133 55.82412,3.22690365 L54.93462,3.3025515 C53.75592,3.43710299 52.57962,3.57494352 51.42732,3.81773422 C49.12542,4.27760133 46.89522,4.94049169 44.81682,5.79085714 C42.73242,6.62806645 40.79922,7.64886379 39.04032,8.74142193 C37.28832,9.84833223 35.71332,11.0398605 34.33722,12.2346777 C32.95692,13.4232159 31.78062,14.6273023 30.78342,15.7431827 C29.78832,16.8602591 28.99152,17.8972027 28.34562,18.7702924 C28.02942,19.2098272 27.74292,19.6006246 27.51252,19.9519535 C27.27582,20.2996944 27.06732,20.5954086 26.91672,20.8486645 C26.59692,21.3411229 26.42922,21.6030498 26.42922,21.6030498" id="Fill-11" fill="#2E2868"></path>
            <path d="M94.53696,7.8750299 C94.51416,8.1901794 94.47456,8.5053289 94.45116,8.81689037 L94.34316,9.74649169 C94.27386,10.3666246 94.17786,10.9774884 94.09866,11.5910432 C94.05966,11.8960266 94.00986,12.201907 93.96726,12.5036013 C93.92136,12.8121728 93.86826,13.1111761 93.82896,13.4164585 C93.78576,13.7214419 93.74016,14.0237342 93.69066,14.3257276 C93.64176,14.6274219 93.59496,14.9297143 93.54216,15.2281196 L93.40716,16.1340997 C93.36426,16.436691 93.31176,16.7315083 93.26226,17.0340997 C93.21666,17.332206 93.15666,17.6315083 93.11736,17.9299136 L92.99256,18.8230365 C92.94936,19.1214419 92.90616,19.4174551 92.85426,19.7155615 C92.83386,19.8635681 92.80446,20.0115748 92.78496,20.1586844 L92.73846,20.6021063 C92.67966,21.1896478 92.59686,21.7771894 92.52426,22.3644319 L92.34636,23.8519734 L90.88446,23.5727043 L83.50656,22.1611096 L81.65286,21.8064917 L79.79526,21.4584518 C79.48236,21.3929701 79.17216,21.3502126 78.85926,21.294598 L78.39246,21.205495 L77.92086,21.1307442 C77.60796,21.0811096 77.29206,21.0123389 76.97586,20.9692824 C76.65606,20.9175548 76.34016,20.8744983 76.01376,20.8123056 C76.32636,20.7166246 76.63926,20.6382857 76.95876,20.5494817 C77.27496,20.4678538 77.59446,20.4182193 77.91756,20.3560266 C78.24036,20.2902458 78.55986,20.2474884 78.88626,20.2080199 C79.20846,20.1685515 79.53126,20.122206 79.85436,20.0997807 L80.82906,20.0274219 C81.15186,20.0115748 81.47826,20.0079867 81.80106,19.9945316 C82.12656,19.9777874 82.44936,19.9843654 82.77246,19.9843654 C83.09856,19.9843654 83.42076,19.9843654 83.74356,20.0014086 L84.71586,20.037588 L85.68066,20.1030698 C86.00346,20.122206 86.32296,20.1550963 86.64276,20.1879867 C86.96556,20.218186 87.28416,20.2543654 87.60366,20.2902458 C87.92316,20.3231362 88.24296,20.3685847 88.56246,20.4116412 C88.88166,20.4576877 89.20146,20.4971561 89.51796,20.5494817 L90.47286,20.7139336 C90.79266,20.7692492 91.10556,20.8215748 91.43406,20.8903455 L89.79396,22.0989169 C89.88606,21.4686179 89.96856,20.8317409 90.07056,20.2014419 L90.14646,19.7290166 C90.17286,19.5711429 90.20886,19.4198472 90.24216,19.2661595 C90.30756,18.957588 90.37686,18.6484186 90.44946,18.3434352 L90.66366,17.421608 C90.72936,17.1157276 90.83466,16.8173223 90.91746,16.5147309 C91.00566,16.2130365 91.09206,15.9146312 91.18356,15.6156279 L91.46706,14.719814 C91.56906,14.4238007 91.67796,14.1289834 91.78326,13.8365581 C91.88856,13.5408439 91.99386,13.2490166 92.10606,12.9565914 C92.21826,12.6641661 92.33046,12.3726379 92.45526,12.0867907 C92.57766,11.7979535 92.69556,11.5088173 92.82456,11.2238671 C92.94936,10.9380199 93.07146,10.6488837 93.20976,10.3699136 C93.34476,10.0843654 93.47976,9.80180731 93.62466,9.52283721 C93.75966,9.24416611 93.91146,8.96489701 94.06326,8.68951495 C94.21746,8.42041196 94.36596,8.14383389 94.53696,7.8750299" id="Fill-13" fill="#2E2868"></path>
            <path d="M63.23823,35.0815515 C63.23823,35.0815515 63.20523,35.1177309 63.13953,35.1900897 C63.07713,35.2588605 62.98773,35.3706877 62.87223,35.4983621 C62.75733,35.6269336 62.61933,35.7842093 62.45733,35.9582292 C62.29953,36.1352392 62.11503,36.3227143 61.92003,36.5394917 C61.72293,36.746402 61.51203,36.9688605 61.28793,37.2053721 C61.06113,37.4320166 60.83343,37.6915515 60.58623,37.9379302 C60.34953,38.1935781 60.09903,38.4498239 59.84853,38.7120498 C59.60823,38.9883289 59.33853,39.2370997 59.10153,39.5196578 C58.97583,39.6515183 58.85103,39.7857708 58.72563,39.9203223 C58.60413,40.0581628 58.48203,40.1927143 58.36383,40.3269668 C58.24473,40.4648073 58.12263,40.5969668 58.00143,40.7246412 C57.88923,40.8591927 57.77703,40.9970332 57.66243,41.1220166 C57.54663,41.2532791 57.43143,41.3809535 57.31923,41.5059369 C57.21363,41.6339103 57.11523,41.7615847 57.00963,41.8835781 C56.79903,42.1227807 56.59473,42.3530133 56.42373,42.5757708 C56.24913,42.7961362 56.07453,42.9961694 55.91943,43.1767674 C55.77453,43.3606545 55.64643,43.5248073 55.53423,43.6557708 C55.42563,43.7900233 55.32663,43.8928804 55.26423,43.9643422 C55.19853,44.033711 55.16253,44.0725814 55.16253,44.0725814 C55.16253,44.0725814 55.16253,44.0238439 55.16913,43.9278638 C55.17843,43.8330797 55.18503,43.6952392 55.20783,43.5179302 C55.22793,43.3406213 55.26093,43.1271329 55.30083,42.8843422 C55.35963,42.6448405 55.43553,42.3826146 55.52403,42.0901894 C55.57383,41.9457708 55.61673,41.7917841 55.67913,41.6437774 C55.74153,41.4894917 55.81083,41.337897 55.87983,41.1809203 C55.94913,41.0203555 56.03163,40.8591927 56.10753,40.6950399 C56.19273,40.5338771 56.29203,40.3766013 56.38743,40.2127475 C56.48283,40.0515847 56.58483,39.8877309 56.69013,39.7235781 C56.79903,39.5624153 56.91783,39.4051395 57.03573,39.2472658 C57.15813,39.0932791 57.27003,38.9252392 57.40533,38.7751395 C57.53673,38.6238439 57.67143,38.4725482 57.80403,38.3218505 C58.07373,38.0261362 58.36953,37.7540432 58.66323,37.4876312 C58.80153,37.3465017 58.95993,37.2319834 59.11083,37.110289 C59.26263,36.9924817 59.40753,36.8707874 59.56263,36.7622492 C59.87223,36.5487608 60.16833,36.3421495 60.46833,36.1681296 C60.61683,36.0859037 60.76083,36.0009867 60.90273,35.9220498 C61.04763,35.849691 61.18923,35.7773322 61.32423,35.7151395 C61.59153,35.5841761 61.85103,35.485804 62.07873,35.396701 C62.31243,35.3144751 62.51373,35.2454053 62.68833,35.1999568 C63.03093,35.1042757 63.23823,35.0815515 63.23823,35.0815515" id="Fill-15" fill="#2E2868"></path>
            <path d="M52.78716,35.0815515 C52.78716,35.0815515 52.84356,35.0657043 52.95576,35.0555382 C53.06376,35.0453721 53.22546,35.032814 53.43306,35.0295249 C53.63706,35.035505 53.89086,35.035505 54.17436,35.0749734 C54.31596,35.0950066 54.46776,35.1111528 54.62526,35.1404551 C54.78366,35.1706545 54.94836,35.2101229 55.12266,35.2454053 C55.29726,35.2791927 55.46856,35.3413854 55.65306,35.393412 C55.83426,35.4496246 56.02476,35.5016512 56.21286,35.580588 C56.40096,35.6529468 56.59146,35.7378638 56.78886,35.8168007 C56.98686,35.8993256 57.17496,36.0108538 57.37236,36.1095249 C57.77106,36.3059701 58.15326,36.5622159 58.53846,36.8211528 C58.92726,37.0773987 59.27616,37.3991262 59.64456,37.6915515 C59.97756,38.0228472 60.31986,38.3514518 60.62616,38.6959037 C60.77436,38.8765017 60.91626,39.0541096 61.05456,39.2311196 C61.19286,39.4144086 61.33776,39.5824485 61.45626,39.7657375 C61.69326,40.1338106 61.91436,40.4976977 62.11506,40.8397575 C62.30586,41.1874983 62.45076,41.5421163 62.58906,41.8575648 C62.65566,42.0178306 62.72106,42.1724153 62.78046,42.3171329 C62.84286,42.4642425 62.87916,42.6119502 62.91846,42.7465017 C62.99766,43.0185947 63.06366,43.2557043 63.10986,43.4524485 C63.15876,43.6488937 63.18486,43.8070664 63.20856,43.9120166 C63.23136,44.0205548 63.23826,44.0758704 63.23826,44.0758704 C63.23826,44.0758704 63.19506,44.036402 63.11586,43.9580631 C63.04356,43.8794252 62.92866,43.764309 62.79366,43.6163023 C62.65806,43.4691927 62.50026,43.2885947 62.32596,43.0783953 C62.15796,42.864907 61.94376,42.6415515 61.71936,42.3984618 C61.61076,42.2740764 61.49856,42.145505 61.38396,42.0112525 C61.26186,41.87999 61.16316,41.7286944 61.02486,41.6010199 C60.76446,41.3322159 60.49776,41.0463688 60.23736,40.7437774 C59.95416,40.4591262 59.65806,40.1732791 59.37486,39.8650066 C59.07216,39.5791595 58.76526,39.2867342 58.45896,38.997598 C58.30056,38.8630465 58.13946,38.725505 57.98166,38.5876645 C57.81996,38.453113 57.67506,38.3018173 57.50376,38.1807209 C57.34296,38.0524485 57.18096,37.9244751 57.02316,37.7935116 C56.87136,37.6589601 56.69706,37.55401 56.54256,37.4287276 C56.38416,37.3136113 56.22906,37.1892259 56.07126,37.0773987 C55.91616,36.9688605 55.75836,36.8674983 55.60656,36.7589601 C55.46166,36.6447409 55.30386,36.5589269 55.15896,36.4605548 C55.01406,36.3681628 54.87576,36.2632126 54.73386,36.1848738 C54.45756,36.0144419 54.20016,35.8529801 53.96676,35.7253056 C53.73576,35.580588 53.52486,35.4792259 53.35026,35.3739767 C53.17596,35.2848738 53.03766,35.2035449 52.94226,35.1604884 C52.84026,35.1042757 52.78716,35.0815515 52.78716,35.0815515" id="Fill-17" fill="#2E2868"></path>
            <path d="M6e-05,77.6953555 L3.19686,77.6953555 L3.19686,81.3357209 C3.19686,81.7564186 3.26736,82.0368837 3.40656,82.1768173 C3.54726,82.2937276 3.82866,82.3520332 4.25046,82.3520332 L5.26866,82.3520332 C5.69076,82.3520332 5.97186,82.2937276 6.11136,82.1768173 C6.25206,82.0368837 6.32226,81.7564186 6.32226,81.3357209 L6.32226,62.9915681 L9.51906,62.9915681 L9.51906,81.8263854 C9.51906,83.8799402 8.43066,84.9076146 6.25206,84.9076146 L3.26736,84.9076146 C1.08876,84.9076146 6e-05,83.8799402 6e-05,81.8263854 L6e-05,77.6953555 Z" id="Fill-19" fill="#2E2868"></path>
            <path d="M19.35357,67.8224153 L22.51527,67.8224153 L22.51527,84.9077641 L19.35357,84.9077641 L19.35357,83.5419169 C19.04877,84.4520831 18.32337,84.9077641 17.17617,84.9077641 L15.91167,84.9077641 C13.80357,84.9077641 12.74997,83.8797907 12.74997,81.8265349 L12.74997,67.8224153 L15.91167,67.8224153 L15.91167,81.3355714 C15.91167,81.7565681 15.98097,82.0367342 16.12137,82.1769668 C16.26207,82.2935781 16.54347,82.3521827 16.96527,82.3521827 L18.19437,82.3521827 C18.61647,82.3521827 18.90807,82.2582957 19.07217,82.0714186 C19.25967,81.8845415 19.35357,81.569691 19.35357,81.1256711 L19.35357,67.8224153 Z" id="Fill-21" fill="#2E2868"></path>
            <path d="M37.55646,67.8224153 L38.78556,67.8224153 C40.89366,67.8224153 41.94726,68.8620498 41.94726,70.9386279 L41.94726,84.9077641 L38.78556,84.9077641 L38.78556,71.393711 C38.78556,70.9736113 38.71536,70.7051063 38.57586,70.588196 C38.45856,70.4491595 38.18916,70.3791927 37.76736,70.3791927 L36.50286,70.3791927 C35.75406,70.3791927 35.37906,70.7867342 35.37906,71.6042093 L35.37906,84.9077641 L32.21736,84.9077641 L32.21736,71.393711 C32.21736,70.9736113 32.14686,70.7051063 32.00646,70.588196 C31.86696,70.4491595 31.58556,70.3791927 31.16376,70.3791927 L29.93436,70.3791927 C29.51256,70.3791927 29.20896,70.4709867 29.02146,70.6578638 C28.85736,70.8447409 28.77546,71.1604884 28.77546,71.6042093 L28.77546,84.9077641 L25.61376,84.9077641 L25.61376,67.8224153 L28.77546,67.8224153 L28.77546,69.1873654 C29.08026,68.2777973 29.80566,67.8224153 30.95286,67.8224153 L32.18196,67.8224153 C33.68106,67.8224153 34.65246,68.3480631 35.09766,69.3981628 C35.37906,68.3480631 36.19806,67.8224153 37.55646,67.8224153" id="Fill-23" fill="#2E2868"></path>
            <g id="Group-27" transform="translate(44.700000, 67.612126)">
                <g id="Fill-25-Clipped">
                    <mask id="mask-2" fill="white">
                        <use xlink:href="#path-1"></use>
                    </mask>
                    <g id="path-1"></g>
                    <path d="M6.79563,13.7235349 L6.79563,3.78167442 C6.79563,3.36157475 6.72543,3.09277076 6.58473,2.97615947 C6.44403,2.83712292 6.16293,2.76685714 5.74113,2.76685714 L4.51173,2.76685714 C4.09113,2.76685714 3.78633,2.85895017 3.59883,3.04582724 C3.43473,3.23270432 3.35283,3.54845183 3.35283,3.99217276 L3.35283,13.5136346 C3.35283,13.9573555 3.43473,14.272505 3.59883,14.4593821 C3.78633,14.6462591 4.09113,14.7398472 4.51173,14.7398472 L5.74113,14.7398472 C6.16293,14.7398472 6.44403,14.6815415 6.58473,14.5646312 C6.72543,14.4246977 6.79563,14.1442326 6.79563,13.7235349 M5.53143,0.210378738 L6.76053,0.210378738 C8.89113,0.210378738 9.95643,1.24971429 9.95643,3.32659136 L9.95643,14.2144983 C9.95643,16.2677542 8.89113,17.2954286 6.76053,17.2954286 L5.53143,17.2954286 C4.38273,17.2954286 3.65733,16.8400465 3.35283,15.9298804 L3.35283,22.1264252 L0.19233,22.1264252 L0.19233,0.210378738 L3.35283,0.210378738 L3.35283,1.5753289 C3.65733,0.665760797 4.38273,0.210378738 5.53143,0.210378738" id="Fill-25" fill="#2E2868" fill-rule="nonzero" mask="url(#mask-2)"></path>
                </g>
            </g>
            <polygon id="Fill-28" fill="#2E2868" points="60.57048 84.9076445 57.79548 84.9076445 57.79548 62.991598 61.27398 62.991598 65.03178 76.5753189 68.79018 62.991598 72.26718 62.991598 72.26718 84.9076445 69.49218 84.9076445 69.49218 68.8735914 66.47238 80.1457176 63.59178 80.1457176 60.57048 68.9085748"></polygon>
            <path d="M82.58091,81.3710033 L82.58091,71.3591761 C82.58091,70.9384784 82.51071,70.6580133 82.36971,70.5180797 C82.22931,70.3790432 81.94941,70.3087774 81.52731,70.3087774 L79.59471,70.3087774 C79.17441,70.3087774 78.89301,70.3790432 78.75231,70.5180797 C78.63531,70.6580133 78.57651,70.9384784 78.57651,71.3591761 L78.57651,81.3710033 C78.57651,81.791402 78.63531,82.0715681 78.75231,82.2120997 C78.89301,82.3520332 79.17441,82.420804 79.59471,82.420804 L81.52731,82.420804 C81.94941,82.420804 82.22931,82.3520332 82.36971,82.2120997 C82.51071,82.0715681 82.58091,81.791402 82.58091,81.3710033 M78.68181,67.8222658 L82.44021,67.8222658 C84.61851,67.8222658 85.70721,68.8619003 85.70721,70.9384784 L85.70721,81.8263854 C85.70721,83.8799402 84.61851,84.9076146 82.44021,84.9076146 L78.68181,84.9076146 C76.52811,84.9076146 75.45111,83.8799402 75.45111,81.8263854 L75.45111,70.9384784 C75.45111,68.8619003 76.52811,67.8222658 78.68181,67.8222658" id="Fill-30" fill="#2E2868" fill-rule="nonzero"></path>
            <path d="M92.59692,82.352093 L93.82632,82.352093 C94.24812,82.352093 94.54002,82.258505 94.70382,82.0716279 C94.89132,81.8847508 94.98522,81.5696013 94.98522,81.1255814 L94.98522,71.5691362 C94.98522,71.1254153 94.89132,70.8099668 94.70382,70.6230897 C94.54002,70.4374086 94.24812,70.3441196 93.82632,70.3441196 L92.59692,70.3441196 C92.17512,70.3441196 91.89342,70.4140864 91.75422,70.5531229 C91.61382,70.6933555 91.54332,70.9618605 91.54332,71.3589369 L91.54332,81.3357807 C91.54332,81.7564784 91.61382,82.0366445 91.75422,82.1768771 C91.89342,82.2937874 92.17512,82.352093 92.59692,82.352093 Z M94.98522,61.4861462 L98.14692,61.4861462 L98.14692,84.9076744 L94.98522,84.9076744 L94.98522,83.5418272 C94.68042,84.4519934 93.95502,84.9076744 92.80752,84.9076744 L91.54332,84.9076744 C89.43522,84.9076744 88.38132,83.879701 88.38132,81.8264452 L88.38132,70.9035548 C88.38132,68.8266777 89.43522,67.7885382 91.54332,67.7885382 L92.80752,67.7885382 C93.95502,67.7885382 94.68042,68.2427243 94.98522,69.1525914 L94.98522,61.4861462 Z" id="Fill-32" fill="#2E2868" fill-rule="nonzero"></path>
            <path d="M104.23599,75.0347043 L108.03039,75.0347043 L108.03039,71.3240731 C108.03039,70.9269967 107.96019,70.6578937 107.81919,70.5182591 C107.70249,70.3792226 107.43249,70.3086578 107.01099,70.3086578 L105.29079,70.3086578 C104.86839,70.3086578 104.58759,70.3792226 104.44689,70.5182591 C104.30619,70.6578937 104.23599,70.9269967 104.23599,71.3240731 L104.23599,75.0347043 Z M104.41179,67.8224452 L107.85489,67.8224452 C110.05539,67.8224452 111.15579,68.8617807 111.15579,70.9386578 L111.15579,77.345103 L104.23599,77.345103 L104.23599,81.4061661 C104.23599,81.8032425 104.30619,82.0714485 104.44689,82.2119801 C104.58759,82.3522126 104.86839,82.4206844 105.29079,82.4206844 L106.90539,82.4206844 C107.32749,82.4206844 107.60859,82.3522126 107.74929,82.2119801 C107.88999,82.0714485 107.96019,81.7915814 107.96019,81.3708837 L107.96019,79.9706512 L111.05049,79.9706512 L111.05049,81.8265648 C111.05049,83.8798206 109.96179,84.907794 107.78439,84.907794 L104.41179,84.907794 C102.23439,84.907794 101.14539,83.8798206 101.14539,81.8265648 L101.14539,70.9386578 C101.14539,68.8617807 102.23439,67.8224452 104.41179,67.8224452 Z" id="Fill-34" fill="#2E2868" fill-rule="nonzero"></path>
            <g id="Fill-36-Clipped">
                <mask id="mask-4" fill="white">
                    <use xlink:href="#path-3"></use>
                </mask>
                <g id="path-3"></g>
                <polygon id="Fill-36" fill="#052166" mask="url(#mask-4)" points="113.8383 84.9076744 117 84.9076744 117 61.4861462 113.8383 61.4861462"></polygon>
            </g>
        </g>
    </g>
</svg>